<mxfile host="app.diagrams.net" modified="2024-07-17T18:09:50.960Z" agent="Mozilla/5.0 (Windows NT 10.0; Win64; x64) AppleWebKit/537.36 (KHTML, like Gecko) Chrome/126.0.0.0 Safari/537.36" etag="dGREHbyUvVG1VsfXuTDd" version="24.5.2" type="device">
  <diagram id="5XK8QlfNFUtluHXEVsSS" name="Page-1">
    <mxGraphModel dx="882" dy="578" grid="1" gridSize="10" guides="1" tooltips="1" connect="1" arrows="1" fold="1" page="1" pageScale="1" pageWidth="850" pageHeight="1100" math="0" shadow="0">
      <root>
        <mxCell id="0" />
        <mxCell id="1" parent="0" />
        <mxCell id="zerk3sANQ7iGWGBt3IxB-22" style="edgeStyle=orthogonalEdgeStyle;rounded=0;orthogonalLoop=1;jettySize=auto;html=1;exitX=1;exitY=0.5;exitDx=0;exitDy=0;entryX=0;entryY=0.5;entryDx=0;entryDy=0;" parent="1" source="zerk3sANQ7iGWGBt3IxB-1" target="zerk3sANQ7iGWGBt3IxB-2" edge="1">
          <mxGeometry relative="1" as="geometry" />
        </mxCell>
        <mxCell id="zerk3sANQ7iGWGBt3IxB-1" value="Services" style="rounded=1;whiteSpace=wrap;html=1;" parent="1" vertex="1">
          <mxGeometry x="40" y="160" width="80" height="40" as="geometry" />
        </mxCell>
        <mxCell id="zerk3sANQ7iGWGBt3IxB-23" style="edgeStyle=orthogonalEdgeStyle;rounded=0;orthogonalLoop=1;jettySize=auto;html=1;exitX=0.5;exitY=1;exitDx=0;exitDy=0;entryX=0.5;entryY=0;entryDx=0;entryDy=0;" parent="1" source="zerk3sANQ7iGWGBt3IxB-2" target="zerk3sANQ7iGWGBt3IxB-19" edge="1">
          <mxGeometry relative="1" as="geometry" />
        </mxCell>
        <mxCell id="zerk3sANQ7iGWGBt3IxB-28" style="edgeStyle=orthogonalEdgeStyle;rounded=0;orthogonalLoop=1;jettySize=auto;html=1;exitX=1;exitY=0.75;exitDx=0;exitDy=0;entryX=0;entryY=0.5;entryDx=0;entryDy=0;" parent="1" source="zerk3sANQ7iGWGBt3IxB-2" target="zerk3sANQ7iGWGBt3IxB-6" edge="1">
          <mxGeometry relative="1" as="geometry">
            <Array as="points">
              <mxPoint x="300" y="190" />
              <mxPoint x="300" y="300" />
            </Array>
          </mxGeometry>
        </mxCell>
        <mxCell id="zerk3sANQ7iGWGBt3IxB-29" style="edgeStyle=orthogonalEdgeStyle;rounded=0;orthogonalLoop=1;jettySize=auto;html=1;exitX=1;exitY=0.5;exitDx=0;exitDy=0;entryX=0;entryY=0.5;entryDx=0;entryDy=0;" parent="1" source="zerk3sANQ7iGWGBt3IxB-2" target="zerk3sANQ7iGWGBt3IxB-5" edge="1">
          <mxGeometry relative="1" as="geometry">
            <Array as="points">
              <mxPoint x="340" y="180" />
              <mxPoint x="340" y="220" />
            </Array>
          </mxGeometry>
        </mxCell>
        <mxCell id="EuERgRADjMJ2CsPJKlqU-6" style="edgeStyle=orthogonalEdgeStyle;rounded=0;orthogonalLoop=1;jettySize=auto;html=1;exitX=1;exitY=0.25;exitDx=0;exitDy=0;entryX=0;entryY=0.5;entryDx=0;entryDy=0;" edge="1" parent="1" source="zerk3sANQ7iGWGBt3IxB-2" target="zerk3sANQ7iGWGBt3IxB-4">
          <mxGeometry relative="1" as="geometry">
            <Array as="points">
              <mxPoint x="300" y="170" />
              <mxPoint x="300" y="140" />
            </Array>
          </mxGeometry>
        </mxCell>
        <mxCell id="EuERgRADjMJ2CsPJKlqU-7" style="edgeStyle=orthogonalEdgeStyle;rounded=0;orthogonalLoop=1;jettySize=auto;html=1;exitX=0.5;exitY=0;exitDx=0;exitDy=0;entryX=0;entryY=0.5;entryDx=0;entryDy=0;" edge="1" parent="1" source="zerk3sANQ7iGWGBt3IxB-2" target="zerk3sANQ7iGWGBt3IxB-3">
          <mxGeometry relative="1" as="geometry" />
        </mxCell>
        <mxCell id="zerk3sANQ7iGWGBt3IxB-2" value="Notification servers" style="rounded=1;whiteSpace=wrap;html=1;" parent="1" vertex="1">
          <mxGeometry x="200" y="160" width="80" height="40" as="geometry" />
        </mxCell>
        <mxCell id="zerk3sANQ7iGWGBt3IxB-30" style="edgeStyle=orthogonalEdgeStyle;rounded=0;orthogonalLoop=1;jettySize=auto;html=1;exitX=1;exitY=0.5;exitDx=0;exitDy=0;entryX=0;entryY=0.5;entryDx=0;entryDy=0;" parent="1" source="zerk3sANQ7iGWGBt3IxB-3" target="zerk3sANQ7iGWGBt3IxB-7" edge="1">
          <mxGeometry relative="1" as="geometry" />
        </mxCell>
        <mxCell id="zerk3sANQ7iGWGBt3IxB-3" value="iOS PN" style="rounded=1;whiteSpace=wrap;html=1;" parent="1" vertex="1">
          <mxGeometry x="360" y="40" width="80" height="40" as="geometry" />
        </mxCell>
        <mxCell id="zerk3sANQ7iGWGBt3IxB-34" style="edgeStyle=orthogonalEdgeStyle;rounded=0;orthogonalLoop=1;jettySize=auto;html=1;exitX=1;exitY=0.5;exitDx=0;exitDy=0;entryX=0;entryY=0.5;entryDx=0;entryDy=0;" parent="1" source="zerk3sANQ7iGWGBt3IxB-4" target="zerk3sANQ7iGWGBt3IxB-8" edge="1">
          <mxGeometry relative="1" as="geometry" />
        </mxCell>
        <mxCell id="zerk3sANQ7iGWGBt3IxB-4" value="Android PN" style="rounded=1;whiteSpace=wrap;html=1;" parent="1" vertex="1">
          <mxGeometry x="360" y="120" width="80" height="40" as="geometry" />
        </mxCell>
        <mxCell id="zerk3sANQ7iGWGBt3IxB-37" style="edgeStyle=orthogonalEdgeStyle;rounded=0;orthogonalLoop=1;jettySize=auto;html=1;exitX=1;exitY=0.5;exitDx=0;exitDy=0;entryX=0;entryY=0.5;entryDx=0;entryDy=0;" parent="1" source="zerk3sANQ7iGWGBt3IxB-5" target="zerk3sANQ7iGWGBt3IxB-9" edge="1">
          <mxGeometry relative="1" as="geometry" />
        </mxCell>
        <mxCell id="zerk3sANQ7iGWGBt3IxB-5" value="SMS queue" style="rounded=1;whiteSpace=wrap;html=1;" parent="1" vertex="1">
          <mxGeometry x="360" y="200" width="80" height="40" as="geometry" />
        </mxCell>
        <mxCell id="zerk3sANQ7iGWGBt3IxB-40" style="edgeStyle=orthogonalEdgeStyle;rounded=0;orthogonalLoop=1;jettySize=auto;html=1;exitX=1;exitY=0.5;exitDx=0;exitDy=0;" parent="1" source="zerk3sANQ7iGWGBt3IxB-6" target="zerk3sANQ7iGWGBt3IxB-10" edge="1">
          <mxGeometry relative="1" as="geometry" />
        </mxCell>
        <mxCell id="zerk3sANQ7iGWGBt3IxB-6" value="Email queue" style="rounded=1;whiteSpace=wrap;html=1;" parent="1" vertex="1">
          <mxGeometry x="360" y="280" width="80" height="40" as="geometry" />
        </mxCell>
        <mxCell id="EuERgRADjMJ2CsPJKlqU-2" style="edgeStyle=orthogonalEdgeStyle;rounded=0;orthogonalLoop=1;jettySize=auto;html=1;exitX=1;exitY=0.5;exitDx=0;exitDy=0;entryX=0;entryY=0.5;entryDx=0;entryDy=0;" edge="1" parent="1" source="zerk3sANQ7iGWGBt3IxB-7" target="zerk3sANQ7iGWGBt3IxB-15">
          <mxGeometry relative="1" as="geometry" />
        </mxCell>
        <mxCell id="zerk3sANQ7iGWGBt3IxB-7" value="Workers" style="rounded=1;whiteSpace=wrap;html=1;" parent="1" vertex="1">
          <mxGeometry x="520" y="40" width="80" height="40" as="geometry" />
        </mxCell>
        <mxCell id="EuERgRADjMJ2CsPJKlqU-3" style="edgeStyle=orthogonalEdgeStyle;rounded=0;orthogonalLoop=1;jettySize=auto;html=1;exitX=1;exitY=0.5;exitDx=0;exitDy=0;entryX=0;entryY=0.5;entryDx=0;entryDy=0;" edge="1" parent="1" source="zerk3sANQ7iGWGBt3IxB-8" target="zerk3sANQ7iGWGBt3IxB-16">
          <mxGeometry relative="1" as="geometry" />
        </mxCell>
        <mxCell id="zerk3sANQ7iGWGBt3IxB-8" value="Workers" style="rounded=1;whiteSpace=wrap;html=1;" parent="1" vertex="1">
          <mxGeometry x="520" y="120" width="80" height="40" as="geometry" />
        </mxCell>
        <mxCell id="EuERgRADjMJ2CsPJKlqU-4" style="edgeStyle=orthogonalEdgeStyle;rounded=0;orthogonalLoop=1;jettySize=auto;html=1;exitX=1;exitY=0.5;exitDx=0;exitDy=0;entryX=0;entryY=0.5;entryDx=0;entryDy=0;" edge="1" parent="1" source="zerk3sANQ7iGWGBt3IxB-9" target="zerk3sANQ7iGWGBt3IxB-17">
          <mxGeometry relative="1" as="geometry" />
        </mxCell>
        <mxCell id="zerk3sANQ7iGWGBt3IxB-9" value="Workers" style="rounded=1;whiteSpace=wrap;html=1;" parent="1" vertex="1">
          <mxGeometry x="520" y="200" width="80" height="40" as="geometry" />
        </mxCell>
        <mxCell id="EuERgRADjMJ2CsPJKlqU-5" style="edgeStyle=orthogonalEdgeStyle;rounded=0;orthogonalLoop=1;jettySize=auto;html=1;exitX=1;exitY=0.5;exitDx=0;exitDy=0;" edge="1" parent="1" source="zerk3sANQ7iGWGBt3IxB-10" target="zerk3sANQ7iGWGBt3IxB-18">
          <mxGeometry relative="1" as="geometry" />
        </mxCell>
        <mxCell id="zerk3sANQ7iGWGBt3IxB-10" value="Workers" style="rounded=1;whiteSpace=wrap;html=1;" parent="1" vertex="1">
          <mxGeometry x="520" y="280" width="80" height="40" as="geometry" />
        </mxCell>
        <mxCell id="zerk3sANQ7iGWGBt3IxB-11" value="iOS" style="rounded=1;whiteSpace=wrap;html=1;" parent="1" vertex="1">
          <mxGeometry x="840" y="40" width="80" height="40" as="geometry" />
        </mxCell>
        <mxCell id="zerk3sANQ7iGWGBt3IxB-12" value="Android" style="rounded=1;whiteSpace=wrap;html=1;" parent="1" vertex="1">
          <mxGeometry x="840" y="120" width="80" height="40" as="geometry" />
        </mxCell>
        <mxCell id="zerk3sANQ7iGWGBt3IxB-13" value="SMS" style="rounded=1;whiteSpace=wrap;html=1;" parent="1" vertex="1">
          <mxGeometry x="840" y="200" width="80" height="40" as="geometry" />
        </mxCell>
        <mxCell id="zerk3sANQ7iGWGBt3IxB-14" value="Email" style="rounded=1;whiteSpace=wrap;html=1;" parent="1" vertex="1">
          <mxGeometry x="840" y="280" width="80" height="40" as="geometry" />
        </mxCell>
        <mxCell id="zerk3sANQ7iGWGBt3IxB-33" style="edgeStyle=orthogonalEdgeStyle;rounded=0;orthogonalLoop=1;jettySize=auto;html=1;exitX=1;exitY=0.5;exitDx=0;exitDy=0;entryX=0;entryY=0.5;entryDx=0;entryDy=0;" parent="1" source="zerk3sANQ7iGWGBt3IxB-15" target="zerk3sANQ7iGWGBt3IxB-11" edge="1">
          <mxGeometry relative="1" as="geometry" />
        </mxCell>
        <mxCell id="zerk3sANQ7iGWGBt3IxB-15" value="APNs" style="rounded=1;whiteSpace=wrap;html=1;" parent="1" vertex="1">
          <mxGeometry x="680" y="40" width="80" height="40" as="geometry" />
        </mxCell>
        <mxCell id="zerk3sANQ7iGWGBt3IxB-36" style="edgeStyle=orthogonalEdgeStyle;rounded=0;orthogonalLoop=1;jettySize=auto;html=1;exitX=1;exitY=0.5;exitDx=0;exitDy=0;entryX=0;entryY=0.5;entryDx=0;entryDy=0;" parent="1" source="zerk3sANQ7iGWGBt3IxB-16" target="zerk3sANQ7iGWGBt3IxB-12" edge="1">
          <mxGeometry relative="1" as="geometry" />
        </mxCell>
        <mxCell id="zerk3sANQ7iGWGBt3IxB-16" value="FCM" style="rounded=1;whiteSpace=wrap;html=1;" parent="1" vertex="1">
          <mxGeometry x="680" y="120" width="80" height="40" as="geometry" />
        </mxCell>
        <mxCell id="zerk3sANQ7iGWGBt3IxB-39" style="edgeStyle=orthogonalEdgeStyle;rounded=0;orthogonalLoop=1;jettySize=auto;html=1;exitX=1;exitY=0.5;exitDx=0;exitDy=0;entryX=0;entryY=0.5;entryDx=0;entryDy=0;" parent="1" source="zerk3sANQ7iGWGBt3IxB-17" target="zerk3sANQ7iGWGBt3IxB-13" edge="1">
          <mxGeometry relative="1" as="geometry" />
        </mxCell>
        <mxCell id="zerk3sANQ7iGWGBt3IxB-17" value="SMS service" style="rounded=1;whiteSpace=wrap;html=1;" parent="1" vertex="1">
          <mxGeometry x="680" y="200" width="80" height="40" as="geometry" />
        </mxCell>
        <mxCell id="zerk3sANQ7iGWGBt3IxB-42" style="edgeStyle=orthogonalEdgeStyle;rounded=0;orthogonalLoop=1;jettySize=auto;html=1;exitX=1;exitY=0.5;exitDx=0;exitDy=0;entryX=0;entryY=0.5;entryDx=0;entryDy=0;" parent="1" source="zerk3sANQ7iGWGBt3IxB-18" target="zerk3sANQ7iGWGBt3IxB-14" edge="1">
          <mxGeometry relative="1" as="geometry" />
        </mxCell>
        <mxCell id="zerk3sANQ7iGWGBt3IxB-18" value="Email service" style="rounded=1;whiteSpace=wrap;html=1;" parent="1" vertex="1">
          <mxGeometry x="680" y="280" width="80" height="40" as="geometry" />
        </mxCell>
        <mxCell id="zerk3sANQ7iGWGBt3IxB-24" style="edgeStyle=orthogonalEdgeStyle;rounded=0;orthogonalLoop=1;jettySize=auto;html=1;exitX=0.5;exitY=1;exitDx=0;exitDy=0;entryX=0.5;entryY=0;entryDx=0;entryDy=0;" parent="1" source="zerk3sANQ7iGWGBt3IxB-19" target="zerk3sANQ7iGWGBt3IxB-20" edge="1">
          <mxGeometry relative="1" as="geometry" />
        </mxCell>
        <mxCell id="zerk3sANQ7iGWGBt3IxB-19" value="Cache" style="rounded=1;whiteSpace=wrap;html=1;" parent="1" vertex="1">
          <mxGeometry x="200" y="240" width="80" height="40" as="geometry" />
        </mxCell>
        <mxCell id="zerk3sANQ7iGWGBt3IxB-20" value="DB" style="rounded=1;whiteSpace=wrap;html=1;" parent="1" vertex="1">
          <mxGeometry x="200" y="320" width="80" height="40" as="geometry" />
        </mxCell>
        <mxCell id="zerk3sANQ7iGWGBt3IxB-43" value="" style="swimlane;startSize=0;" parent="1" vertex="1">
          <mxGeometry x="640" width="160" height="360" as="geometry" />
        </mxCell>
        <mxCell id="zerk3sANQ7iGWGBt3IxB-44" value="" style="swimlane;startSize=0;" parent="1" vertex="1">
          <mxGeometry x="320" width="160" height="360" as="geometry" />
        </mxCell>
        <mxCell id="zerk3sANQ7iGWGBt3IxB-46" value="Message queues" style="text;html=1;strokeColor=none;fillColor=none;align=center;verticalAlign=middle;whiteSpace=wrap;rounded=0;" parent="zerk3sANQ7iGWGBt3IxB-44" vertex="1">
          <mxGeometry y="330" width="160" height="30" as="geometry" />
        </mxCell>
        <mxCell id="zerk3sANQ7iGWGBt3IxB-45" value="Third party services" style="text;html=1;strokeColor=none;fillColor=none;align=center;verticalAlign=middle;whiteSpace=wrap;rounded=0;" parent="1" vertex="1">
          <mxGeometry x="640" y="330" width="160" height="30" as="geometry" />
        </mxCell>
      </root>
    </mxGraphModel>
  </diagram>
</mxfile>
